<svg width="957" height="92" viewBox="0 0 957 92" fill="none" xmlns="http://www.w3.org/2000/svg">
<rect width="957" height="92" fill="#1E1E1E"/>
<rect width="957" height="92" rx="22" fill="url(#paint0_linear_0_1)"/>
<g filter="url(#filter0_d_0_1)">
<path d="M66.3848 61.4C64.3315 61.4 62.4382 61.0533 60.7048 60.36C58.9982 59.64 57.5048 58.64 56.2248 57.36C54.9715 56.0533 53.9982 54.52 53.3048 52.76C52.6115 50.9733 52.2648 49.0267 52.2648 46.92C52.2648 44.8667 52.6248 42.9733 53.3448 41.24C54.0648 39.48 55.0782 37.96 56.3848 36.68C57.6915 35.3733 59.2248 34.36 60.9848 33.64C62.7448 32.92 64.6515 32.56 66.7048 32.56C68.0382 32.56 69.3448 32.7467 70.6248 33.12C71.9315 33.4667 73.1182 33.9867 74.1848 34.68C75.2782 35.3733 76.2115 36.2 76.9848 37.16L73.2248 41.32C72.5848 40.68 71.9182 40.1333 71.2248 39.68C70.5582 39.2 69.8382 38.84 69.0648 38.6C68.3182 38.3333 67.5182 38.2 66.6648 38.2C65.5182 38.2 64.4382 38.4133 63.4248 38.84C62.4382 39.2667 61.5715 39.8667 60.8248 40.64C60.0782 41.3867 59.4782 42.3067 59.0248 43.4C58.5982 44.4667 58.3848 45.6533 58.3848 46.96C58.3848 48.2933 58.5982 49.5067 59.0248 50.6C59.4515 51.6667 60.0515 52.5867 60.8248 53.36C61.5982 54.1067 62.5182 54.6933 63.5848 55.12C64.6782 55.52 65.8782 55.72 67.1848 55.72C68.0382 55.72 68.8648 55.6 69.6648 55.36C70.4648 55.12 71.1982 54.7867 71.8648 54.36C72.5582 53.9333 73.1715 53.44 73.7048 52.88L76.6248 57.56C75.9848 58.28 75.1182 58.9333 74.0248 59.52C72.9582 60.1067 71.7582 60.5733 70.4248 60.92C69.0915 61.24 67.7448 61.4 66.3848 61.4ZM102.123 61V33H108.123V61H102.123ZM84.483 61V33H90.483V61H84.483ZM86.883 49.76L86.923 44.32H105.203V49.76H86.883ZM118.22 61V33H137.14V38.28H124.06V55.72H137.42V61H118.22ZM121.02 49.28V44.16H135.22V49.28H121.02ZM158.691 61.4C156.638 61.4 154.744 61.0533 153.011 60.36C151.304 59.64 149.811 58.64 148.531 57.36C147.278 56.0533 146.304 54.52 145.611 52.76C144.918 50.9733 144.571 49.0267 144.571 46.92C144.571 44.8667 144.931 42.9733 145.651 41.24C146.371 39.48 147.384 37.96 148.691 36.68C149.998 35.3733 151.531 34.36 153.291 33.64C155.051 32.92 156.958 32.56 159.011 32.56C160.344 32.56 161.651 32.7467 162.931 33.12C164.238 33.4667 165.424 33.9867 166.491 34.68C167.584 35.3733 168.518 36.2 169.291 37.16L165.531 41.32C164.891 40.68 164.224 40.1333 163.531 39.68C162.864 39.2 162.144 38.84 161.371 38.6C160.624 38.3333 159.824 38.2 158.971 38.2C157.824 38.2 156.744 38.4133 155.731 38.84C154.744 39.2667 153.878 39.8667 153.131 40.64C152.384 41.3867 151.784 42.3067 151.331 43.4C150.904 44.4667 150.691 45.6533 150.691 46.96C150.691 48.2933 150.904 49.5067 151.331 50.6C151.758 51.6667 152.358 52.5867 153.131 53.36C153.904 54.1067 154.824 54.6933 155.891 55.12C156.984 55.52 158.184 55.72 159.491 55.72C160.344 55.72 161.171 55.6 161.971 55.36C162.771 55.12 163.504 54.7867 164.171 54.36C164.864 53.9333 165.478 53.44 166.011 52.88L168.931 57.56C168.291 58.28 167.424 58.9333 166.331 59.52C165.264 60.1067 164.064 60.5733 162.731 60.92C161.398 61.24 160.051 61.4 158.691 61.4ZM181.309 52.72L180.029 47.28L194.189 33H201.469L181.309 52.72ZM176.789 61V33H182.789V61H176.789ZM194.949 61L184.469 47.08L188.589 43.52L202.069 61H194.949ZM236.547 61.4C234.494 61.4 232.6 61.04 230.867 60.32C229.134 59.6 227.614 58.6 226.307 57.32C225.027 56.0133 224.04 54.48 223.347 52.72C222.654 50.9333 222.307 49 222.307 46.92C222.307 44.8133 222.654 42.8933 223.347 41.16C224.04 39.4 225.027 37.8667 226.307 36.56C227.614 35.2533 229.134 34.24 230.867 33.52C232.6 32.8 234.494 32.44 236.547 32.44C238.627 32.44 240.52 32.8 242.227 33.52C243.96 34.24 245.467 35.2533 246.747 36.56C248.054 37.8667 249.054 39.4 249.747 41.16C250.44 42.92 250.787 44.84 250.787 46.92C250.787 49 250.44 50.92 249.747 52.68C249.054 54.44 248.054 55.9733 246.747 57.28C245.467 58.5867 243.96 59.6 242.227 60.32C240.52 61.04 238.627 61.4 236.547 61.4ZM236.547 55.72C237.72 55.72 238.8 55.5067 239.787 55.08C240.8 54.6533 241.667 54.04 242.387 53.24C243.107 52.44 243.667 51.5067 244.067 50.44C244.494 49.3733 244.707 48.2 244.707 46.92C244.707 45.64 244.494 44.4667 244.067 43.4C243.667 42.3333 243.107 41.4133 242.387 40.64C241.667 39.84 240.8 39.2267 239.787 38.8C238.8 38.3467 237.72 38.12 236.547 38.12C235.374 38.12 234.294 38.3467 233.307 38.8C232.32 39.2267 231.454 39.84 230.707 40.64C229.96 41.4133 229.387 42.3333 228.987 43.4C228.614 44.4667 228.427 45.64 228.427 46.92C228.427 48.2 228.614 49.3733 228.987 50.44C229.387 51.5067 229.96 52.44 230.707 53.24C231.454 54.04 232.32 54.6533 233.307 55.08C234.294 55.5067 235.374 55.72 236.547 55.72ZM270.537 61.24C268.271 61.24 266.244 60.7733 264.457 59.84C262.697 58.88 261.311 57.5733 260.297 55.92C259.284 54.24 258.777 52.3467 258.777 50.24V32.96H264.817V49.88C264.817 51 265.071 52.0133 265.577 52.92C266.084 53.8 266.764 54.5067 267.617 55.04C268.497 55.5733 269.471 55.84 270.537 55.84C271.631 55.84 272.617 55.5733 273.497 55.04C274.404 54.5067 275.111 53.8 275.617 52.92C276.151 52.0133 276.417 51 276.417 49.88V32.96H282.257V50.24C282.257 52.3467 281.751 54.24 280.737 55.92C279.724 57.5733 278.324 58.88 276.537 59.84C274.777 60.7733 272.777 61.24 270.537 61.24ZM297.931 61V38.4H289.771V33H312.331V38.4H303.931V61H297.931ZM340.472 61L331.952 33H338.112L342.672 48.64C342.858 49.2 343.018 49.8133 343.152 50.48C343.312 51.12 343.432 51.7467 343.512 52.36C343.618 52.9467 343.698 53.5067 343.752 54.04C343.832 54.5467 343.898 54.9733 343.952 55.32L342.992 55.28C343.232 54.16 343.432 53.2267 343.592 52.48C343.752 51.7067 343.898 51.0267 344.032 50.44C344.192 49.8267 344.378 49.2133 344.592 48.6L348.992 37.04H353.952L358.272 48.6C358.592 49.4 358.845 50.1733 359.032 50.92C359.245 51.64 359.418 52.3467 359.552 53.04C359.685 53.7067 359.818 54.3867 359.952 55.08L359.072 55.24C359.152 54.68 359.205 54.2 359.232 53.8C359.285 53.3733 359.325 52.9867 359.352 52.64C359.405 52.2933 359.458 51.9467 359.512 51.6C359.565 51.2267 359.645 50.8 359.752 50.32C359.858 49.8133 360.018 49.2267 360.232 48.56L364.752 33H370.832L362.232 61H357.792L350.872 44.44L351.512 44.52L345.072 61H340.472ZM395.357 61V33H401.357V61H395.357ZM377.717 61V33H383.717V61H377.717ZM380.117 49.76L380.157 44.32H398.437V49.76H380.117ZM408.135 61L419.095 33H424.455L435.375 61H429.215L423.575 45.92C423.415 45.4933 423.215 44.9467 422.975 44.28C422.762 43.6133 422.535 42.9067 422.295 42.16C422.055 41.4133 421.828 40.7067 421.615 40.04C421.402 39.3467 421.242 38.7733 421.135 38.32L422.215 38.28C422.055 38.8933 421.868 39.5333 421.655 40.2C421.468 40.84 421.268 41.5067 421.055 42.2C420.842 42.8667 420.615 43.52 420.375 44.16C420.135 44.8 419.908 45.4267 419.695 46.04L414.055 61H408.135ZM413.215 55.12L415.175 50.28H428.015L430.015 55.12H413.215ZM445.954 61V38.4H437.794V33H460.354V38.4H451.954V61H445.954ZM482.455 61V55.84H487.135V38.16H482.455V33H497.815V38.16H493.135V55.84H497.815V61H482.455ZM506.226 43.24L504.506 41.12C505.599 40.64 506.479 40.0667 507.146 39.4C507.839 38.7333 508.186 38.16 508.186 37.68C508.186 37.36 508.066 37.0667 507.826 36.8C507.613 36.5067 507.333 36.2533 506.986 36.04C506.373 35.56 505.946 35.1333 505.706 34.76C505.493 34.36 505.386 33.9333 505.386 33.48C505.386 32.7067 505.653 32.0933 506.186 31.64C506.746 31.1867 507.466 30.96 508.346 30.96C509.146 30.96 509.853 31.1733 510.466 31.6C511.106 32 511.613 32.5733 511.986 33.32C512.359 34.04 512.546 34.88 512.546 35.84C512.546 36.64 512.386 37.4267 512.066 38.2C511.746 38.9467 511.293 39.6533 510.706 40.32C510.146 40.9867 509.479 41.5733 508.706 42.08C507.959 42.5867 507.133 42.9733 506.226 43.24ZM520.572 61V33H526.052L536.252 49.6L532.652 49.56L542.972 33H548.212V61H542.332V51.4C542.332 49 542.385 46.84 542.492 44.92C542.625 43 542.839 41.0933 543.132 39.2L543.852 41.08L535.652 53.8H533.012L524.972 41.16L525.652 39.2C525.945 40.9867 526.145 42.8267 526.252 44.72C526.385 46.5867 526.452 48.8133 526.452 51.4V61H520.572ZM573.36 61V33H579.36V55.6H592.04V61H573.36ZM599.697 61V55.84H604.377V38.16H599.697V33H615.057V38.16H610.377V55.84H615.057V61H599.697ZM633.508 61.4C631.775 61.4 630.188 61.1867 628.748 60.76C627.335 60.3333 626.068 59.7067 624.948 58.88C623.855 58.0533 622.868 57.0533 621.988 55.88L625.748 51.6C627.055 53.4133 628.348 54.6533 629.628 55.32C630.935 55.96 632.348 56.28 633.868 56.28C634.695 56.28 635.428 56.1733 636.068 55.96C636.735 55.72 637.255 55.3867 637.628 54.96C638.002 54.5333 638.188 54.0267 638.188 53.44C638.188 53.0133 638.095 52.6267 637.908 52.28C637.722 51.9067 637.455 51.5867 637.108 51.32C636.762 51.0267 636.348 50.7733 635.868 50.56C635.388 50.32 634.855 50.12 634.268 49.96C633.682 49.7733 633.042 49.6267 632.348 49.52C630.855 49.1733 629.548 48.76 628.428 48.28C627.308 47.7733 626.375 47.16 625.628 46.44C624.882 45.6933 624.322 44.8533 623.948 43.92C623.602 42.9867 623.428 41.9333 623.428 40.76C623.428 39.56 623.695 38.4533 624.228 37.44C624.762 36.4 625.495 35.5067 626.428 34.76C627.388 34.0133 628.482 33.44 629.708 33.04C630.962 32.64 632.282 32.44 633.668 32.44C635.375 32.44 636.868 32.64 638.148 33.04C639.428 33.4133 640.535 33.96 641.468 34.68C642.428 35.4 643.228 36.28 643.868 37.32L640.068 41C639.508 40.2533 638.895 39.6267 638.228 39.12C637.588 38.6133 636.882 38.24 636.108 38C635.362 37.7333 634.588 37.6 633.788 37.6C632.908 37.6 632.148 37.72 631.508 37.96C630.868 38.1733 630.362 38.4933 629.988 38.92C629.642 39.3467 629.468 39.8667 629.468 40.48C629.468 40.96 629.588 41.3867 629.828 41.76C630.068 42.1333 630.415 42.4667 630.868 42.76C631.322 43.0267 631.868 43.2667 632.508 43.48C633.148 43.6933 633.855 43.88 634.628 44.04C636.095 44.3333 637.415 44.72 638.588 45.2C639.762 45.68 640.762 46.2667 641.588 46.96C642.442 47.6267 643.095 48.4267 643.548 49.36C644.002 50.2667 644.228 51.2933 644.228 52.44C644.228 54.3333 643.775 55.9467 642.868 57.28C641.962 58.6133 640.708 59.64 639.108 60.36C637.508 61.0533 635.642 61.4 633.508 61.4ZM658.303 61V38.4H650.143V33H672.703V38.4H664.303V61H658.303ZM680.458 61V33H699.378V38.28H686.298V55.72H699.658V61H680.458ZM683.258 49.28V44.16H697.458V49.28H683.258ZM708.649 61V33H714.009L729.489 53.92H728.369C728.262 53.0933 728.169 52.2933 728.089 51.52C728.009 50.72 727.929 49.92 727.849 49.12C727.795 48.2933 727.742 47.4533 727.689 46.6C727.662 45.72 727.635 44.8 727.609 43.84C727.582 42.8533 727.569 41.7867 727.569 40.64V33H733.449V61H728.009L712.209 39.88L713.729 39.92C713.862 41.3067 713.969 42.4933 714.049 43.48C714.155 44.44 714.235 45.28 714.289 46C714.342 46.72 714.382 47.3467 714.409 47.88C714.462 48.4133 714.489 48.92 714.489 49.4C714.515 49.88 714.529 50.3867 714.529 50.92V61H708.649ZM742.799 61V55.84H747.479V38.16H742.799V33H758.159V38.16H753.479V55.84H758.159V61H742.799ZM767.53 61V33H772.89L788.37 53.92H787.25C787.143 53.0933 787.05 52.2933 786.97 51.52C786.89 50.72 786.81 49.92 786.73 49.12C786.676 48.2933 786.623 47.4533 786.57 46.6C786.543 45.72 786.516 44.8 786.49 43.84C786.463 42.8533 786.45 41.7867 786.45 40.64V33H792.33V61H786.89L771.09 39.88L772.61 39.92C772.743 41.3067 772.85 42.4933 772.93 43.48C773.036 44.44 773.116 45.28 773.17 46C773.223 46.72 773.263 47.3467 773.29 47.88C773.343 48.4133 773.37 48.92 773.37 49.4C773.396 49.88 773.41 50.3867 773.41 50.92V61H767.53ZM815.24 61.4C813.08 61.4 811.093 61.04 809.28 60.32C807.493 59.5733 805.947 58.5467 804.64 57.24C803.333 55.9333 802.32 54.4 801.6 52.64C800.907 50.88 800.56 48.9733 800.56 46.92C800.56 44.8667 800.92 42.9733 801.64 41.24C802.387 39.48 803.427 37.96 804.76 36.68C806.12 35.3733 807.707 34.36 809.52 33.64C811.333 32.92 813.32 32.56 815.48 32.56C816.973 32.56 818.4 32.76 819.76 33.16C821.12 33.56 822.36 34.1067 823.48 34.8C824.6 35.4933 825.533 36.2933 826.28 37.2L822.56 41.12C821.867 40.4533 821.133 39.8933 820.36 39.44C819.613 38.96 818.827 38.6 818 38.36C817.173 38.0933 816.32 37.96 815.44 37.96C814.187 37.96 813.027 38.1867 811.96 38.64C810.92 39.0933 810 39.72 809.2 40.52C808.4 41.32 807.773 42.2667 807.32 43.36C806.893 44.4533 806.68 45.64 806.68 46.92C806.68 48.1733 806.907 49.36 807.36 50.48C807.84 51.5733 808.48 52.5333 809.28 53.36C810.107 54.16 811.067 54.8 812.16 55.28C813.253 55.7333 814.427 55.96 815.68 55.96C816.56 55.96 817.4 55.8267 818.2 55.56C819 55.2933 819.693 54.92 820.28 54.44C820.893 53.9333 821.36 53.3467 821.68 52.68C822.027 52.0133 822.2 51.3067 822.2 50.56V49.6L823 50.72H815V45.72H827.96C827.987 46.0133 828.013 46.3733 828.04 46.8C828.093 47.2267 828.12 47.6533 828.12 48.08C828.147 48.48 828.16 48.8 828.16 49.04C828.16 50.8533 827.827 52.52 827.16 54.04C826.52 55.56 825.613 56.8667 824.44 57.96C823.293 59.0533 821.933 59.9067 820.36 60.52C818.787 61.1067 817.08 61.4 815.24 61.4ZM857.16 61V38.4H849V33H871.56V38.4H863.16V61H857.16ZM890.505 61.4C888.452 61.4 886.558 61.04 884.825 60.32C883.092 59.6 881.572 58.6 880.265 57.32C878.985 56.0133 877.998 54.48 877.305 52.72C876.612 50.9333 876.265 49 876.265 46.92C876.265 44.8133 876.612 42.8933 877.305 41.16C877.998 39.4 878.985 37.8667 880.265 36.56C881.572 35.2533 883.092 34.24 884.825 33.52C886.558 32.8 888.452 32.44 890.505 32.44C892.585 32.44 894.478 32.8 896.185 33.52C897.918 34.24 899.425 35.2533 900.705 36.56C902.012 37.8667 903.012 39.4 903.705 41.16C904.398 42.92 904.745 44.84 904.745 46.92C904.745 49 904.398 50.92 903.705 52.68C903.012 54.44 902.012 55.9733 900.705 57.28C899.425 58.5867 897.918 59.6 896.185 60.32C894.478 61.04 892.585 61.4 890.505 61.4ZM890.505 55.72C891.678 55.72 892.758 55.5067 893.745 55.08C894.758 54.6533 895.625 54.04 896.345 53.24C897.065 52.44 897.625 51.5067 898.025 50.44C898.452 49.3733 898.665 48.2 898.665 46.92C898.665 45.64 898.452 44.4667 898.025 43.4C897.625 42.3333 897.065 41.4133 896.345 40.64C895.625 39.84 894.758 39.2267 893.745 38.8C892.758 38.3467 891.678 38.12 890.505 38.12C889.332 38.12 888.252 38.3467 887.265 38.8C886.278 39.2267 885.412 39.84 884.665 40.64C883.918 41.4133 883.345 42.3333 882.945 43.4C882.572 44.4667 882.385 45.64 882.385 46.92C882.385 48.2 882.572 49.3733 882.945 50.44C883.345 51.5067 883.918 52.44 884.665 53.24C885.412 54.04 886.278 54.6533 887.265 55.08C888.252 55.5067 889.332 55.72 890.505 55.72Z" fill="white"/>
</g>
<defs>
<filter id="filter0_d_0_1" x="48.2648" y="30.96" width="860.48" height="38.44" filterUnits="userSpaceOnUse" color-interpolation-filters="sRGB">
<feFlood flood-opacity="0" result="BackgroundImageFix"/>
<feColorMatrix in="SourceAlpha" type="matrix" values="0 0 0 0 0 0 0 0 0 0 0 0 0 0 0 0 0 0 127 0" result="hardAlpha"/>
<feOffset dy="4"/>
<feGaussianBlur stdDeviation="2"/>
<feComposite in2="hardAlpha" operator="out"/>
<feColorMatrix type="matrix" values="0 0 0 0 0 0 0 0 0 0 0 0 0 0 0 0 0 0 0.25 0"/>
<feBlend mode="normal" in2="BackgroundImageFix" result="effect1_dropShadow_0_1"/>
<feBlend mode="normal" in="SourceGraphic" in2="effect1_dropShadow_0_1" result="shape"/>
</filter>
<linearGradient id="paint0_linear_0_1" x1="363.987" y1="-10.4863" x2="363.987" y2="102.626" gradientUnits="userSpaceOnUse">
<stop stop-color="#E99C43"/>
<stop offset="1" stop-color="#521C0C"/>
</linearGradient>
</defs>
</svg>
